<svg id="Layer_1" data-name="Layer 1" xmlns="http://www.w3.org/2000/svg" viewBox="0 0 600 250"><defs><style>.cls-1{fill:rgb(217, 189, 119);}</style></defs><path class="cls-1" d="M332.46,227.08c-.82-2.92-1.79-6.79-2.64-10.4l1.93.74.17-.47c-.85-2.17-1.12-5.6-.17-9.81l60.45-28.77c5.34-2.54,7.52-2.58,9.58-1.2l.65-.31c.89-5.16,2.79-13.18,4-17.71-5-1.75-12.71-4.82-16.94-6.56l-.16.07c-.39,1.82-.58,3.23-.84,4.7a22.27,22.27,0,0,1-1.52-1.74l16.63-64.4c1.47-5.7,2.83-7.37,5.23-8l.18-.69c-3.42-4-8.4-10.6-11.12-14.42-4.6,2.7-11.9,6.55-16,8.65l-.05.17C383,78.34,384,79.4,385,80.54c-.75,0-1.5.07-2.32,0l-39.07-54c-3.46-4.78-3.88-6.89-2.86-9.15l-.42-.58c-5.28,0-13.58-.44-18.28-.82-.5,3-1.28,6.9-2,10.53l-1.43-1.48-.36.36c-.15,2.32-1.37,5.54-4,9l-67,.74c-5.93.07-7.92-.8-9.2-2.93h-.72C234.18,36.5,229,43,226,46.57c3.81,3.7,9.45,9.7,12.55,13h.18c1.12-1.49,1.9-2.68,2.76-3.91.23.71.45,1.42.63,2.22l-42.52,51.4c-3.76,4.54-5.71,5.49-8.17,5.1L191,115c1.4,5.06,3.1,13.12,3.94,17.73,5.31-.52,13.57-1,18.15-1.15l.11-.14c-.42-1.81-.85-3.16-1.24-4.61.69.28,1.39.57,2.12,1l12.38,65.33c1.09,5.78.58,7.87-1.31,9.49l.13.7c4.81,2.19,12.13,6.08,16.23,8.4,3-4.37,8-10.92,10.78-14.52l0-.17c-1.67-.85-3-1.4-4.36-2,.67-.34,1.34-.69,2.1-1l58.43,32.59c5.17,2.89,6.45,4.62,6.49,7.1l.63.35C320.32,231.76,328,228.7,332.46,227.08ZM314.17,208.7,286.07,193l2.76-3.76-.42-.29c-2.08.57-6.54-.77-9.77-2.35l-3.25-17.14,25,13.94s0,.06,0,.09l.86.38,16,8.9C316.37,197.84,315.37,203.1,314.17,208.7ZM287.83,89.55c-.32-.91-.64-1.86-1-2.84l24.28-.27c3.78,0,5.77,1,7.23,3h.71c.77-1.27,1.6-2.61,2.47-4L337.89,108c2.2,3.05,2.47,5.26,1.71,7.56l.41.58,3-.19-6,23.32c-.94,3.62-2.48,5.26-4.75,6.15l-.18.69c.68.69,1.38,1.42,2.09,2.17l-21.89,10.41c-3.4,1.62-5.65,1.51-7.8.36l-.65.31c-.15,1.47-.34,3-.54,4.64l-24.44-13.63c-3.29-1.84-4.48-3.73-4.77-6.14l-.62-.35-2.65,1.44-4.48-23.66c-.7-3.68,0-5.8,1.67-7.56l-.13-.7-2.81-1.09,15.39-18.61c2.4-2.9,4.48-3.73,6.93-3.59Zm42.92-49.23,18.79,26-4.11,2.25.26.43c2.13.36,5.6,3.45,7.85,6.23l-4.36,16.9L332.46,69l.05-.07-.61-.71L321.23,53.46C324.13,49.24,327.28,44.89,330.75,40.32Zm41.41,79.79c1.1,1.85.94,6.47.24,10l-15.86,7.55,5.75-22.29,2.34,0,4.52-17.91.15-.1c4.33-.08,8.85-.06,13.6,0l-6.19,24-4.38-1.68ZM242.68,154.24l-.05-.5c-1.78-1.22-3.61-5.47-4.47-8.93l11.16-13.49,4.29,22.61-2.1,1L255,173.06l-.09.16q-5.83,2.84-12.35,5.66L238,154.56Zm122.78,2c2.85,3.24,5.74,6.69,8.71,10.36l-27.83,13.25c-.28-1.13-.54-2.19-.78-3.12l-.49.14c-.9,1.95-4.81,4.48-8.09,5.91l-15-8.35,25-11.91,1.53,1.75,16.74-8.07Zm-107-102.89L289.29,53c-.23,1.13-.44,2.21-.62,3.15l.5.08c1.65-1.39,6.27-2,9.86-2l10,13.85-27.75.31c-.22-.76-.44-1.52-.64-2.23l-18.62.3-.13-.11C260.7,62.25,259.54,57.92,258.42,53.34Zm-21.6,40,3.25,3.36.36-.37c-.21-2.13,1.9-6.25,4-9.13L262.05,87l-14.71,17.78-2.13-.94-11.73,14.33-.18,0c-4-1.74-8.05-3.65-12.31-5.74Z"/><path class="cls-1" d="M315.52,234.56l-1.1-.61v-.29c0-2.14-1-3.75-6.23-6.67L250,194.52c-.32.13-.62.27-.91.42l.29.13c1,.43,2,.88,3.14,1.47l.22.11.12.64-.14.18c-3.21,4.15-8,10.44-10.76,14.49l-.26.38-.4-.22c-4.44-2.51-11.62-6.3-16.19-8.38l-.23-.11-.24-1.24.22-.19c1.63-1.4,2.26-3.18,1.15-9l-12.34-65.09-.91-.42.09.32c.29,1,.58,2,.88,3.32l.06.24-.42.5h-.22c-1.92.08-11.81.52-18.12,1.14l-.46.05-.08-.45c-.91-5-2.6-12.86-3.93-17.68l-.07-.25.8-1,.28,0c2.13.34,3.91-.33,7.72-4.93L241.61,57.8c-.08-.33-.17-.65-.26-1-.07.1-.14.19-.2.29-.6.86-1.21,1.76-2,2.79l-.14.2h-.65l-.15-.16c-1.3-1.4-8-8.62-12.53-13l-.34-.32.3-.36c3.26-3.89,8.27-10.24,11.14-14.35l.14-.21h1.27l.14.24c1.11,1.84,2.78,2.75,8.77,2.69l66.8-.74c2.24-2.94,3.62-6,3.78-8.49l0-.19.84-.86,1.13,1.18c.83-4,1.44-7.18,1.84-9.59l.08-.46.46,0c5.08.42,13.23.83,18.24.82h.26l.74,1-.12.26c-.88,1.95-.69,3.82,2.81,8.65L382.9,80.08c.34,0,.68,0,1,0l-.22-.26c-.69-.79-1.4-1.61-2.21-2.63l-.16-.2.17-.62.2-.11c1.7-.88,10.48-5.42,15.93-8.63l.4-.23.26.37c3,4.13,7.84,10.58,11.1,14.38l.17.2-.32,1.22-.27.08c-2.07.58-3.4,1.93-4.89,7.7L387.51,155.5c.21.27.43.53.65.77a3.06,3.06,0,0,1,0-.32c.17-1,.35-2.11.62-3.39l.05-.24.59-.28.2.08c1.77.73,10.91,4.47,16.91,6.56l.44.15-.12.45c-1.29,4.89-3.13,12.74-4,17.67l-.05.25-1.14.55-.23-.16c-1.79-1.2-3.69-1.34-9.1,1.24l-60.22,28.66c-.78,3.6-.71,7,.19,9.27l.07.18-.4,1.13-1.53-.58c.93,3.86,1.76,7.12,2.42,9.45l.13.45-.44.16c-4.79,1.75-12.34,4.77-16.88,6.9Zm-.12-1.21.16.09c4.45-2.07,11.55-4.92,16.29-6.67-.69-2.5-1.56-5.94-2.52-10l-.22-.92,2.19.84a18.62,18.62,0,0,1,0-9.68l.05-.24L392,177.92c5.06-2.41,7.52-2.75,9.84-1.32l.16-.08c.85-4.82,2.57-12.21,3.84-17.05-5.64-2-13.67-5.25-16.11-6.25-.21,1.06-.37,2-.51,2.89-.08.45-.15.89-.23,1.34l-.18,1-.68-.74c-.48-.51-1-1.1-1.55-1.78l-.14-.19.06-.24L403.1,91.1c1.4-5.4,2.71-7.49,5.31-8.33l0-.17c-3.17-3.73-7.78-9.79-10.71-13.87-5.14,3-12.83,7-15.18,8.21.67.84,1.29,1.54,1.88,2.23.31.35.6.69.9,1L386,81,385,81c-.74,0-1.52.07-2.37,0h-.24l-.14-.2-39.06-54c-3.28-4.52-4.05-6.86-3-9.38l-.1-.14c-5,0-12.58-.39-17.61-.78-.44,2.56-1.1,5.95-2,10.1l-.19.92-1.63-1.68a18.8,18.8,0,0,1-4.1,8.79l-.15.19h-.24l-67,.74c-5.6.08-8-.65-9.48-2.92h-.18c-2.81,4-7.52,10-10.74,13.85C231,50.69,236.85,57,238.63,59c.65-.87,1.18-1.64,1.69-2.38l.79-1.15.58-.82.31,1c.22.71.46,1.44.64,2.26l.05.24-.15.19L200,109.64c-3.56,4.31-5.64,5.65-8.36,5.33l-.11.13c1.29,4.72,2.88,12.14,3.8,17.06,5.93-.56,14.62-1,17.26-1.08-.26-1-.51-1.94-.76-2.81-.13-.45-.25-.88-.37-1.33l-.27-1,.94.39c.65.27,1.4.57,2.16,1l.21.11L227,193c1,5.46.74,7.91-1.26,9.76l0,.17c4.47,2,11.23,5.62,15.63,8.09,2.76-4,7.14-9.77,10.26-13.8-1-.48-1.84-.86-2.68-1.24l-1.25-.56-.93-.43.91-.47c.66-.34,1.35-.7,2.14-1l.22-.09,58.65,32.71C313.56,228.84,315.25,230.64,315.4,233.35Zm-.88-23.89-29.19-16.27.7-1,2-2.66c-2.36.29-6.47-1-9.57-2.49l-.22-.11-3.5-18.44,26.24,14.64v.05l.51.23,16.31,9.09-.06.34c-.85,5.18-1.84,10.39-3,15.92Zm-27.71-16.59,27,15.06c1.1-5.15,2-10,2.82-14.86L301,184.34l-1.17-.51,0-.13-23.77-13.26,3,15.85c3.1,1.48,7.3,2.73,9.2,2.21l.22-.06,1,.7-.3.42-2.4,3.26ZM337,183.33l-16-8.94,26.24-12.49,1.52,1.75,16.57-8,.5.12.1.12c2.81,3.2,5.75,6.7,8.72,10.38l.4.49-29,13.78-.15-.59c-.21-.87-.41-1.68-.59-2.41-1.29,2-4.92,4.3-8.08,5.68Zm-13.86-8.87L337,182.21c3.13-1.4,6.8-3.78,7.62-5.56l.1-.21,1.2-.33.13.49c.19.76.4,1.62.63,2.52l26.71-12.71c-2.77-3.41-5.5-6.66-8.13-9.65l-16.84,8.12-1.53-1.75Zm-80.86,5.12-4.83-25.49,1.2-.08,3.3-.22c-1.73-1.6-3.4-5.54-4.22-8.86l-.06-.25,12-14.5,4.56,24-2.1,1,3.5,17.93-.26.45-.14.07c-3.85,1.87-8,3.77-12.37,5.67ZM238.59,155,243,178.17c4-1.77,7.91-3.54,11.52-5.29l-3.56-18.22,2.1-1-4-21.19-10.32,12.47c.85,3.3,2.58,7.29,4.2,8.4l.19.13.13,1.24-.51,0c-1.18.09-2.56.18-4.05.27Zm65.11,9.77-25.09-14c-3.09-1.72-4.6-3.6-5-6.25l-.16-.09-2.41,1.3-.6.32-4.61-24.32c-.66-3.46-.17-5.82,1.62-7.82l0-.17-2.56-1-.64-.26,15.84-19.14c2.25-2.72,4.37-3.86,7.08-3.78l.12-.15c-.29-.83-.59-1.69-.88-2.57l-.22-.65,25-.28h.22c3.42,0,5.61.89,7.25,3h.19c.73-1.21,1.51-2.47,2.33-3.76l.39-.62,16.77,23.19c2.07,2.86,2.64,5.2,1.86,7.76l.11.15,2.74-.17.68,0-6.19,24c-.88,3.41-2.33,5.34-4.81,6.4l0,.17,1.89,2,.48.5L312.5,159.14c-3.2,1.52-5.62,1.66-8,.46l-.17.08c-.15,1.39-.32,2.87-.51,4.37ZM273.46,143.3l1.09.61,0,.25c.29,2.47,1.6,4.13,4.52,5.76l23.79,13.27c.16-1.34.32-2.65.44-3.89l0-.28,1.13-.54.22.12c2.21,1.18,4.34,1.07,7.36-.37l21.26-10.12-1.6-1.66-.2-.2.31-1.21.24-.09c2.32-.92,3.61-2.6,4.44-5.82l5.85-22.65c-.79,0-1.57.1-2.32.15l-.28,0-.73-1,.08-.25c.79-2.35.31-4.41-1.64-7.1l-15.9-22c-.73,1.15-1.42,2.28-2.07,3.35l-.14.24h-1.25l-.15-.2c-1.5-2-3.48-2.77-6.82-2.75l-23.59.26c.25.75.5,1.48.74,2.18l.1.27-.8,1h-.25c-2.51-.15-4.39.84-6.51,3.41l-15,18.08,2.16.83.27.1.23,1.23-.18.18c-1.71,1.8-2.16,3.87-1.54,7.13l4.35,23,2.05-1.11Zm82.33-4.77,6.12-23.69,2.33,0,4.47-17.72.42-.3h.16c4.28-.08,8.86-.06,13.62,0h.63L377.05,122l-.52-.2-3.69-1.42c.89,2.18.72,6.45.05,9.81l-.05.25Zm6.89-22.7-5.39,20.88,14.67-7c.63-3.34.77-7.68-.23-9.37l-.12-.2L372,119l.48.18,3.85,1.48,5.9-22.82c-4.43-.09-8.69-.11-12.69,0l-4.55,18Zm-129.44,2.88-.14-.06c-3.93-1.73-8.08-3.66-12.33-5.75l-.57-.28,16.59-20.05.43.44,2.7,2.79c.12-2.35,2.09-6.15,4.14-8.92l.14-.2,18.93-.21-15.65,18.91-2.13-.94-11.6,14.18Zm-11.46-6.43c4,1.94,7.82,3.73,11.48,5.35l11.8-14.42,2.13,1L261,87.5l-16.26.18c-2,2.76-4,6.64-3.79,8.59l0,.23-.88.89-.35-.37c-.84-.85-1.82-1.86-2.87-3Zm127.62-19L331.85,69l0,0-.36-.41-10.9-15.07.2-.29c3-4.34,6.09-8.64,9.53-13.16l.41-.54,19.52,27-.5.27-3.46,1.89c2.26.73,5.45,3.59,7.61,6.26l.16.2ZM333.07,69,349,91l4-15.62c-2.18-2.63-5.45-5.53-7.4-5.85l-.22,0-.65-1.08.46-.25,3.61-2-18.06-25c-3.19,4.21-6.11,8.24-8.9,12.3L332.3,67.92l.85,1Zm-52.16-.06-.63-2.22-18.42.3-.4-.33,0-.15c-1.19-4.08-2.36-8.48-3.49-13.06l-.15-.61,32.12-.36-.12.61-.48,2.42c2-1.25,6.27-1.83,9.74-1.76h.25L310,68.6Zm.12-3.24.63,2.23,26.41-.29-9.3-12.86c-3.44-.07-7.77.58-9.28,1.85l-.17.15-1.24-.2.1-.51.5-2.54-29.62.33c1.05,4.25,2.14,8.33,3.24,12.15Z"/></svg>