<svg id="Layer_1" data-name="Layer 1" xmlns="http://www.w3.org/2000/svg" viewBox="0 0 600 250"><defs><style>.cls-1{fill:rgb(217, 189, 119);}</style></defs><path class="cls-1" d="M124,51.56c-14.11-14.11-15.87-19.39-14.36-26.45l-2.77-1c-3.78,7.06-8.06,16.89-8.06,24.44,0,10.59,2.51,13.36,14.6,26.71l9.08,9.82c-8.32,5.55-21.92,13.6-27.46,16.63v93.2c0,5-1.77,7.56-4.29,8.82v1c9.58,5.3,26.45,15.37,34.77,20.91a344.54,344.54,0,0,1,43.08-28V115.3c0-9.32,1.25-11.33,4.28-13.86v-1C163.84,93.13,124,51.56,124,51.56Zm36.09,118v17.7a132.89,132.89,0,0,0-35.41,16.84,2.22,2.22,0,0,1-3.09-.64c-6.24-8.85-7.21-31.71-7.19-41.1a2.62,2.62,0,0,1,1.66-2.51l.69-.26a2.86,2.86,0,0,0,1.15-4.28l-2.1-3.05a1.09,1.09,0,0,1-.19-.84c.77-4.62,7.38-42.3,20.51-53.18a.9.9,0,0,1,1.44.71c.66,5.27,3.24,21.72,10.5,30a3.17,3.17,0,0,1,.69,2.84c-2.13,8.23-4.14,17.53-2,26,1.93,7.64,7.11,10.91,13.46,11.8Z"/><path class="cls-1" d="M245.46,124.88h-1c-6.3-6.8-15.62-20.41-18.65-27.71l-5.29,5.54v91.7c12.1,7.55,14.36,8.56,18.14,8.56,1.77,0,3.28-1.51,4.79-3.27l2.26-2.52L250,201c-14.87,14.86-24.44,24.68-24.44,24.68A287.45,287.45,0,0,0,190.29,206v-1c2.77-2.52,4.29-4.79,4.29-12.6V102.2c-5.29-4-8.82-5.54-12.6-5.79l-.5-.75c5.79-5.3,13.35-12.1,19.14-18.65,7.06,5.8,14.61,12.6,20.91,17.64,8.82-7.56,11.59-10.58,18.9-17.64,4.78,7.56,13.35,19.65,21.16,28C256.55,110,250.25,118.33,245.46,124.88Z"/><path class="cls-1" d="M363.87,207c-7.31,6.8-12.85,12.1-19.15,18.9-8.06-6.3-15.62-11.84-22.93-16.88h-.25l-19.9,16.88c-8.31-5.8-19.65-13.61-28.72-19.15v-1c2.77-2,4.28-4.78,4.28-10.07V102.2c-4-3-9.82-6-12.84-5.79l-.51-.5c5-4.79,13.61-12.6,19.65-18.9,7.56,5.8,17.39,12.85,23.94,17.13v1c-3,1.51-4.29,4.54-4.29,12.09v90.69c4.79,4,8.57,7.56,11.84,9.58,0,0,8.32-7.31,9.83-8.57V101c-3-2.52-5.29-3.78-8.57-6.3V94.4C321,90.11,329.6,82.3,334.89,77c5,4.29,14.11,11.59,20.16,15.87v1c-3,1.77-4.28,4.54-4.28,12.85v94c4.78,3.78,9.32,5.55,12.59,5.8Z"/><path class="cls-1" d="M418.53,207l-19.65,18.64C393.34,221.36,382,213.3,375,208.77v-1c3.28-2,4.28-4.79,4.28-11.84V102.2l-3.27-2c-5.29-3.28-7-3.28-9.83-3.28l-.25-1L385.53,77c5.54,4.29,16.38,12.1,23.93,17.13v1c-3,1.76-4.28,4.28-4.28,11.09V200.7c7.81,5,10.58,5.55,12.85,5.55ZM386.79,64.42l-8.06-8.82c7-7.05,23.93-25.19,28.21-31.49,2,2.52,7.06,13.35,9.33,19.15C410.22,48.29,394.85,59.38,386.79,64.42Z"/><path class="cls-1" d="M460.35,51.58C446.24,37.46,444.48,32.18,446,25.12l-2.77-1c-3.78,7.06-8.06,16.88-8.06,24.44,0,10.58,2.51,13.35,14.61,26.71l9.06,9.81c-8.31,5.55-21.91,13.61-27.45,16.63v93.21c0,5-1.76,7.56-4.29,8.82v1c9.57,5.29,26.46,15.37,34.77,20.91a344.54,344.54,0,0,1,43.08-28V181.86h0V164.69h0V115.31c0-9.32,1.25-11.34,4.28-13.86v-1C500.15,93.14,460.35,51.58,460.35,51.58ZM461,199.64a2.22,2.22,0,0,1-3.09-.63c-6.24-8.85-7.22-31.72-7.19-41.1a2.59,2.59,0,0,1,1.66-2.52l.7-.25a2.86,2.86,0,0,0,1.13-4.28l-2.1-3.05A1.15,1.15,0,0,1,452,147c.76-4.62,7.38-42.3,20.5-53.18a.91.91,0,0,1,1.45.72c.66,5.27,3.24,21.71,10.5,30a3.16,3.16,0,0,1,.69,2.84,92.24,92.24,0,0,0-3,15.73c-.36,4.74-.16,9.85,2,14.19,2.28,4.53,6.62,7.14,11.5,8.15l.82.15V182.8A132.76,132.76,0,0,0,461,199.64Z"/></svg>