<?xml version="1.0" encoding="UTF-8"?>
<svg width="86px" height="63px" viewBox="0 0 86 63" version="1.1" xmlns="http://www.w3.org/2000/svg" xmlns:xlink="http://www.w3.org/1999/xlink">
    <!-- Generator: Sketch 50 (54983) - http://www.bohemiancoding.com/sketch -->
    <title>lw-stack-black</title>
    <desc>Created with Sketch.</desc>
    <defs></defs>
    <g id="Page-1" stroke="none" stroke-width="1" fill="none" fill-rule="evenodd">
        <g id="11-new-nav-showpage-alt" transform="translate(-43.000000, -33.000000)" fill="#FFFFFF">
            <g id="lwt-head-copy-7">
                <g id="lw-stack-white" transform="translate(43.000000, 33.000000)">
                    <path d="M79.2095833,0.0966168 C75.6610595,0.0966168 72.7749405,2.9386728 72.7749405,6.4318968 C72.7749405,9.9251208 75.6610595,12.7671768 79.2095833,12.7671768 C82.7581071,12.7671768 85.6442262,9.9251208 85.6442262,6.4318968 C85.6442262,2.9386728 82.7581071,0.0966168 79.2095833,0.0966168" id="Fill-5"></path>
                    <polygon id="Fill-6" points="49.2677619 1.7895024 69.009881 43.4783664 74.0828571 30.9232224 60.2660357 1.7895024"></polygon>
                    <polygon id="Fill-7" points="27.2708048 1.7895024 47.0129238 43.4783664 52.0859 30.9232224 38.2690786 1.7895024"></polygon>
                    <polygon id="Fill-8" points="9.65769762 33.9110352 9.65769762 1.7896032 0.0200666667 1.7896032 0.0200666667 42.8998752 30.5782214 42.8998752 26.3212214 33.9110352"></polygon>
                    <polygon id="Fill-9" points="0.0200666667 54.6511392 2.87854286 54.6511392 2.87854286 62.8204752 4.69580476 62.8204752 4.69580476 54.6511392 7.55376905 54.6511392 7.55376905 52.9274592 0.0200666667 52.9274592"></polygon>
                    <polygon id="Fill-10" points="17.0906571 52.9273584 17.0906571 56.9271024 12.7010738 56.9271024 12.7010738 52.9273584 10.910431 52.9273584 10.9109429 62.8203744 12.7010738 62.8203744 12.7010738 58.6376784 17.0906571 58.6376784 17.0906571 62.8203744 18.8813 62.8203744 18.8813 52.9273584"></polygon>
                    <polygon id="Fill-11" points="25.034344 58.6507824 29.4142012 58.6507824 29.4142012 56.9664144 25.034344 56.9664144 25.034344 54.6117264 29.7587131 54.6117264 29.7587131 52.9273584 23.2437012 52.9273584 23.2437012 62.8203744 29.4484988 62.8203744 30.1170464 61.1662464 30.1170464 61.1355024 25.034344 61.1355024"></polygon>
                    <polygon id="Fill-12" points="66.5858071 58.6507824 70.9656643 58.6507824 70.9656643 56.9664144 66.5858071 56.9664144 66.5858071 54.6117264 71.3101762 54.6117264 71.3101762 52.9273584 64.7951643 52.9273584 64.7951643 62.8203744 70.9999619 62.8203744 71.6685095 61.1662464 71.6685095 61.1355024 66.5858071 61.1355024"></polygon>
                    <polygon id="Fill-13" points="43.0272845 54.6511392 45.8852488 54.6511392 45.8852488 62.8204752 47.7025107 62.8204752 47.7025107 54.6511392 50.5609869 54.6511392 50.5609869 52.9274592 43.0272845 52.9274592"></polygon>
                    <path d="M60.8030238,55.991124 C60.8030238,54.46602 59.7833095,52.927308 57.5058452,52.927308 L53.9173929,52.927308 L53.9173929,62.820324 L55.7085476,62.820324 L55.7085476,59.041836 L56.7958333,59.041836 L59.1782381,62.820324 L61.3410357,62.820324 L58.6960238,58.841748 C60.2455595,58.340772 60.8030238,57.054564 60.8030238,55.991124 M57.2678095,57.383172 L55.7085476,57.383172 L55.7085476,54.611676 L57.5058452,54.611676 C58.5787976,54.611676 58.9591429,55.34802 58.9591429,55.97802 C58.9591429,56.307636 58.8373095,57.383172 57.2678095,57.383172" id="Fill-14"></path>
                    <path d="M36.5463143,52.9273584 L32.54885,62.8203744 L34.4802667,62.8203744 L35.3412905,60.5433024 L38.8949333,60.5433024 L39.7477667,62.8203744 L41.6781595,62.8203744 L37.7216476,52.9273584 L36.5463143,52.9273584 Z M35.9489214,58.9370544 L37.1273262,55.8228384 L38.2934452,58.9370544 L35.9489214,58.9370544 Z" id="Fill-15"></path>
                    <path d="M79.751281,57.5747424 L77.8454595,56.6640144 C77.225031,56.3676624 76.7975905,56.0279664 76.7975905,55.4937264 C76.7975905,54.8632224 77.3279238,54.4494384 78.1183048,54.4494384 C78.92865,54.4494384 79.5690429,54.8138304 80.1393048,55.5133824 L81.2603762,54.2821104 C80.4397929,53.2771344 79.3990905,52.7650704 78.1085786,52.7650704 C76.257531,52.7650704 74.9066143,53.9368704 74.9066143,55.5723504 C74.9066143,56.8046304 75.5731143,57.5742384 76.6906024,58.1079744 L78.4382452,58.9431024 C79.2148048,59.3140464 79.504031,59.6199744 79.504031,60.1426224 C79.504031,60.7524624 79.0187452,61.2957744 78.0082452,61.2957744 C77.0878405,61.2957744 76.17665,60.7655664 75.6074119,59.8281264 L74.2866976,60.9238224 C75.1369714,62.3128464 76.4474476,62.9801424 78.0082452,62.9801424 C80.019519,62.9801424 81.4200905,61.7317344 81.4200905,60.0277104 C81.4200905,58.8307104 80.7950548,58.0731984 79.751281,57.5747424" id="Fill-16"></path>
                </g>
            </g>
        </g>
    </g>
</svg>